<svg xmlns="http://www.w3.org/2000/svg" width="171" height="50" viewBox="0 0 171 50" fill="none"><path d="M30.7301 11.1756L32.9501 7.33563C32.8201 7.24563 32.6801 7.14562 32.5401 7.05562C31.4301 6.30562 30.2501 5.66563 29.0201 5.14563C27.7701 4.61563 26.4601 4.20563 25.1301 3.93563C23.7601 3.65563 22.3601 3.51562 20.9501 3.51562C20.9201 3.51562 20.9001 3.51562 20.8701 3.51562V7.91563H20.9501C24.5101 7.90563 27.8901 9.03562 30.7301 11.1756Z" fill="white"></path><path d="M25.1299 44.5262C26.4599 44.2562 27.7699 43.8462 29.0199 43.3162C30.2499 42.7962 31.4299 42.1562 32.5399 41.4062C33.6399 40.6662 34.6699 39.8163 35.6099 38.8763C36.5499 37.9363 37.3999 36.9063 38.1399 35.8063C38.8899 34.6963 39.5299 33.5163 40.0499 32.2863C40.5799 31.0363 40.9899 29.7262 41.2599 28.3962C41.5399 27.0262 41.6799 25.6262 41.6799 24.2162C41.6799 23.2762 41.6199 22.3363 41.4899 21.4062H37.0399H25.7399V26.2663H37.1499C36.6599 30.1763 34.7499 33.7762 31.7899 36.4162C30.3299 37.7162 28.6699 38.7362 26.8499 39.4362C24.9699 40.1662 22.9899 40.5363 20.9599 40.5363C20.9499 40.5363 20.9299 40.5363 20.9199 40.5363C20.9099 40.5363 20.8899 40.5363 20.8799 40.5363V44.9362C20.9099 44.9362 20.9299 44.9362 20.9599 44.9362C22.3599 44.9462 23.7599 44.8062 25.1299 44.5262Z" fill="white"></path><path d="M20.8802 40.5459C11.9202 40.5059 4.64023 33.1859 4.64023 24.2259C4.64023 15.2659 11.9302 7.94586 20.8802 7.90586V3.50586C19.5002 3.51586 18.1202 3.65586 16.7802 3.92586C15.4502 4.19586 14.1402 4.60586 12.8902 5.13586C11.6602 5.65586 10.4802 6.29586 9.37023 7.04586C8.27023 7.78586 7.24023 8.63586 6.30023 9.57586C5.36023 10.5159 4.51023 11.5459 3.77023 12.6459C3.02023 13.7559 2.38023 14.9359 1.86023 16.1659C1.33023 17.4159 0.930234 18.7259 0.650234 20.0559C0.380234 21.4159 0.240234 22.8159 0.240234 24.2259C0.240234 25.6359 0.380234 27.0359 0.660234 28.4059C0.930234 29.7359 1.34023 31.0459 1.87023 32.2959C2.39023 33.5259 3.03023 34.7059 3.78023 35.8159C4.52023 36.9159 5.37023 37.9459 6.31023 38.8859C7.25023 39.8259 8.28023 40.6759 9.38023 41.4159C10.4902 42.1659 11.6702 42.8059 12.9002 43.3259C14.1502 43.8559 15.4602 44.2559 16.7902 44.5359C18.1302 44.8059 19.5102 44.9559 20.8902 44.9559L20.8802 40.5459Z" fill="#32CD32"></path><path d="M20.9499 40.546C22.9799 40.546 24.9599 40.176 26.8399 39.446C28.6499 38.746 30.3199 37.726 31.7799 36.426C34.7399 33.786 36.6499 30.186 37.1399 26.276H25.7399V21.416H20.8799V40.536C20.8899 40.536 20.9099 40.536 20.9199 40.536C20.9299 40.546 20.9399 40.546 20.9499 40.546Z" fill="#32CD32"></path><path d="M44.5604 0.777344H20.8804V3.50734C20.9104 3.50734 20.9304 3.50734 20.9604 3.50734C22.3704 3.50734 23.7704 3.64734 25.1404 3.92734C26.4704 4.19734 27.7804 4.60734 29.0304 5.13734C30.2604 5.65734 31.4404 6.29734 32.5504 7.04734C32.6904 7.14734 32.8304 7.23734 32.9604 7.32734L30.7404 11.1673C27.9004 9.03734 24.5203 7.90734 20.9604 7.90734H20.8804V21.4173H25.7404H37.0303H41.4804C41.6104 22.3473 41.6703 23.2873 41.6703 24.2273C41.6703 25.6373 41.5304 27.0373 41.2504 28.4073C40.9804 29.7373 40.5704 31.0473 40.0404 32.2973C39.5204 33.5273 38.8804 34.7073 38.1304 35.8173C37.3904 36.9173 36.5403 37.9473 35.6003 38.8873C34.6603 39.8273 33.6303 40.6773 32.5303 41.4173C31.4203 42.1673 30.2404 42.8073 29.0104 43.3273C27.7604 43.8573 26.4504 44.2673 25.1204 44.5373C23.7504 44.8173 22.3504 44.9573 20.9404 44.9573C20.9104 44.9573 20.8904 44.9573 20.8604 44.9573V47.5373H44.5404V0.777344H44.5604Z" fill="#32CD32"></path><path d="M58.4247 12.8531H63.2734V19.4683C62.4804 19.7266 61.7173 19.9099 60.9843 20.018C60.2573 20.1262 59.4702 20.1802 58.623 20.1802C56.6283 20.1802 55.0901 19.5914 54.0086 18.4138C52.9272 17.2302 52.3864 15.5629 52.3864 13.4119C52.3864 11.291 52.9962 9.63268 54.2159 8.43702C55.4356 7.23536 57.1149 6.63453 59.2539 6.63453C60.6298 6.63453 61.9336 6.8989 63.1653 7.42763L62.4083 9.22111C61.3388 8.72843 60.2693 8.48209 59.1998 8.48209C57.7939 8.48209 56.6823 8.9237 55.8652 9.80692C55.0481 10.6901 54.6395 11.8978 54.6395 13.4299C54.6395 15.0401 55.006 16.2658 55.739 17.107C56.4781 17.9422 57.5385 18.3597 58.9204 18.3597C59.6174 18.3597 60.3624 18.2726 61.1555 18.0984V14.7007H58.4247V12.8531ZM68.5998 12.9523H70.0959C71.0993 12.9523 71.8263 12.766 72.2769 12.3935C72.7275 12.021 72.9528 11.4682 72.9528 10.7352C72.9528 9.99017 72.7095 9.45543 72.2228 9.13098C71.7361 8.80654 71.0031 8.64431 70.0238 8.64431H68.5998V12.9523ZM68.5998 14.7367V20H66.4458V6.8238H70.168C71.8683 6.8238 73.1271 7.14224 73.9442 7.77912C74.7613 8.416 75.1699 9.37732 75.1699 10.6631C75.1699 12.3034 74.3167 13.472 72.6103 14.1689L76.3325 20H73.8811L70.7267 14.7367H68.5998ZM85.7054 20H78.2521V6.8238H85.7054V8.64431H80.4061V12.2313H85.372V14.0338H80.4061V18.1705H85.7054V20ZM96.0157 20H88.5624V6.8238H96.0157V8.64431H90.7164V12.2313H95.6822V14.0338H90.7164V18.1705H96.0157V20ZM109.85 20H107.209L100.729 9.50049H100.657L100.702 10.0863C100.786 11.2038 100.828 12.2253 100.828 13.1505V20H98.8726V6.8238H101.486L107.948 17.2692H108.002C107.99 17.131 107.966 16.6293 107.93 15.7641C107.894 14.8929 107.876 14.214 107.876 13.7273V6.8238H109.85V20ZM119.024 20L115.203 8.9958H115.131C115.233 10.6301 115.284 12.1622 115.284 13.5921V20H113.329V6.8238H116.366L120.025 17.3053H120.079L123.846 6.8238H126.892V20H124.819V13.484C124.819 12.8291 124.834 11.9759 124.865 10.9245C124.901 9.87301 124.931 9.23613 124.955 9.01382H124.883L120.926 20H119.024ZM137.815 20H130.362V6.8238H137.815V8.64431H132.516V12.2313H137.482V14.0338H132.516V18.1705H137.815V20ZM151.65 20H149.009L142.529 9.50049H142.457L142.502 10.0863C142.586 11.2038 142.628 12.2253 142.628 13.1505V20H140.672V6.8238H143.286L149.748 17.2692H149.802C149.79 17.131 149.766 16.6293 149.73 15.7641C149.694 14.8929 149.676 14.214 149.676 13.7273V6.8238H151.65V20ZM58.641 33.4821C57.4033 33.4821 56.43 33.9207 55.721 34.7979C55.012 35.6751 54.6575 36.8858 54.6575 38.4299C54.6575 40.0462 54.997 41.2688 55.6759 42.098C56.3609 42.9271 57.3493 43.3417 58.641 43.3417C59.1998 43.3417 59.7406 43.2876 60.2633 43.1795C60.786 43.0653 61.3298 42.9211 61.8945 42.7469V44.5944C60.8611 44.985 59.6895 45.1802 58.3797 45.1802C56.451 45.1802 54.97 44.5974 53.9365 43.4318C52.9031 42.2602 52.3864 40.5869 52.3864 38.4119C52.3864 37.042 52.6357 35.8433 53.1344 34.8159C53.6391 33.7885 54.3661 33.0014 55.3155 32.4547C56.2648 31.9079 57.3793 31.6345 58.6591 31.6345C60.0049 31.6345 61.2486 31.9169 62.3902 32.4817L61.6152 34.2752C61.1705 34.0649 60.6989 33.8816 60.2002 33.7254C59.7075 33.5632 59.1878 33.4821 58.641 33.4821ZM76.4316 38.3939C76.4316 40.5388 75.8939 42.2061 74.8184 43.3958C73.7489 44.5854 72.2318 45.1802 70.2671 45.1802C68.2784 45.1802 66.7492 44.5914 65.6798 43.4138C64.6163 42.2302 64.0846 40.5509 64.0846 38.3758C64.0846 36.2008 64.6193 34.5305 65.6888 33.3649C66.7643 32.1993 68.2964 31.6165 70.2851 31.6165C72.2438 31.6165 73.7579 32.2083 74.8274 33.392C75.8969 34.5756 76.4316 36.2429 76.4316 38.3939ZM66.3737 38.3939C66.3737 40.0161 66.7012 41.2478 67.3561 42.089C68.011 42.9241 68.9813 43.3417 70.2671 43.3417C71.5469 43.3417 72.5112 42.9271 73.1601 42.098C73.815 41.2688 74.1425 40.0341 74.1425 38.3939C74.1425 36.7776 73.818 35.5519 73.1691 34.7168C72.5262 33.8816 71.5649 33.4641 70.2851 33.4641C68.9933 33.4641 68.017 33.8816 67.3561 34.7168C66.7012 35.5519 66.3737 36.7776 66.3737 38.3939ZM90.2387 45H87.5981L81.1181 34.5005H81.046L81.0911 35.0863C81.1752 36.2038 81.2172 37.2253 81.2172 38.1505V45H79.2615V31.8238H81.8751L88.3371 42.2692H88.3911C88.3791 42.131 88.3551 41.6293 88.319 40.7641C88.283 39.8929 88.265 39.214 88.265 38.7273V31.8238H90.2387V45ZM101.315 41.4221C101.315 42.5937 100.891 43.5129 100.044 44.1799C99.1971 44.8468 98.0285 45.1802 96.5384 45.1802C95.0483 45.1802 93.8287 44.9489 92.8793 44.4863V42.4495C93.4802 42.7319 94.1171 42.9542 94.79 43.1164C95.4689 43.2786 96.0998 43.3597 96.6826 43.3597C97.5358 43.3597 98.1636 43.1975 98.5662 42.8731C98.9748 42.5486 99.1791 42.113 99.1791 41.5663C99.1791 41.0736 98.9928 40.656 98.6203 40.3135C98.2478 39.9711 97.4787 39.5655 96.3131 39.0968C95.1114 38.6102 94.2643 38.0544 93.7716 37.4295C93.2789 36.8047 93.0326 36.0536 93.0326 35.1764C93.0326 34.0769 93.4231 33.2117 94.2042 32.5808C94.9853 31.95 96.0337 31.6345 97.3495 31.6345C98.6113 31.6345 99.867 31.9109 101.117 32.4637L100.432 34.2211C99.2602 33.7284 98.2147 33.4821 97.2954 33.4821C96.5985 33.4821 96.0698 33.6353 95.7093 33.9417C95.3488 34.2421 95.1685 34.6417 95.1685 35.1404C95.1685 35.4829 95.2406 35.7773 95.3848 36.0236C95.529 36.2639 95.7663 36.4922 96.0968 36.7085C96.4273 36.9248 97.0221 37.2102 97.8813 37.5647C98.8486 37.9673 99.5576 38.3428 100.008 38.6913C100.459 39.0398 100.789 39.4333 101 39.8719C101.21 40.3105 101.315 40.8272 101.315 41.4221ZM114.194 31.8238V40.3496C114.194 41.3229 113.984 42.1761 113.563 42.9091C113.148 43.6361 112.545 44.1979 111.751 44.5944C110.964 44.985 110.021 45.1802 108.922 45.1802C107.287 45.1802 106.017 44.7477 105.109 43.8825C104.202 43.0173 103.748 41.8276 103.748 40.3135V31.8238H105.911V40.1603C105.911 41.2478 106.164 42.0499 106.668 42.5666C107.173 43.0834 107.948 43.3417 108.994 43.3417C111.024 43.3417 112.04 42.2752 112.04 40.1423V31.8238H114.194ZM117.564 45V31.8238H119.718V43.1524H125.297V45H117.564ZM132.12 45H129.966V33.6713H126.09V31.8238H135.995V33.6713H132.12V45ZM138.023 45V31.8238H140.177V45H138.023ZM154.642 45H152.001L145.521 34.5005H145.449L145.494 35.0863C145.578 36.2038 145.62 37.2253 145.62 38.1505V45H143.665V31.8238H146.278L152.74 42.2692H152.794C152.782 42.131 152.758 41.6293 152.722 40.7641C152.686 39.8929 152.668 39.214 152.668 38.7273V31.8238H154.642V45ZM163.51 37.8531H168.359V44.4683C167.566 44.7266 166.802 44.9099 166.069 45.018C165.342 45.1262 164.555 45.1802 163.708 45.1802C161.713 45.1802 160.175 44.5914 159.094 43.4138C158.012 42.2302 157.472 40.5629 157.472 38.4119C157.472 36.291 158.081 34.6327 159.301 33.437C160.521 32.2354 162.2 31.6345 164.339 31.6345C165.715 31.6345 167.019 31.8989 168.25 32.4276L167.493 34.2211C166.424 33.7284 165.354 33.4821 164.285 33.4821C162.879 33.4821 161.768 33.9237 160.95 34.8069C160.133 35.6901 159.725 36.8978 159.725 38.4299C159.725 40.0401 160.091 41.2658 160.824 42.107C161.563 42.9422 162.624 43.3597 164.006 43.3597C164.703 43.3597 165.448 43.2726 166.241 43.0984V39.7007H163.51V37.8531Z" fill="#32CD32"></path></svg>